<svg width="18" height="17" viewBox="0 0 18 17" fill="none" xmlns="http://www.w3.org/2000/svg">
<path d="M8.16016 12.6797V7.67969H9.83984V12.6797H8.16016ZM3.08203 2.64062C4.72266 1 6.6888 0.179687 8.98047 0.179687C11.2982 0.179687 13.2643 1 14.8789 2.64062C16.5195 4.25521 17.3398 6.20833 17.3398 8.5C17.3398 10.7917 16.5195 12.7578 14.8789 14.3984C13.2643 16.013 11.2982 16.8203 8.98047 16.8203C6.6888 16.8203 4.72266 16.013 3.08203 14.3984C1.46745 12.7578 0.660156 10.7917 0.660156 8.5C0.660156 6.20833 1.46745 4.25521 3.08203 2.64062ZM4.29297 13.2266C5.59505 14.5286 7.15755 15.1797 8.98047 15.1797C10.8294 15.1797 12.4049 14.5286 13.707 13.2266C15.0091 11.9245 15.6602 10.349 15.6602 8.5C15.6602 6.65104 15.0091 5.07552 13.707 3.77344C12.4049 2.47135 10.8294 1.82031 8.98047 1.82031C7.15755 1.82031 5.59505 2.47135 4.29297 3.77344C2.99089 5.07552 2.33984 6.65104 2.33984 8.5C2.33984 10.349 2.99089 11.9245 4.29297 13.2266ZM8.16016 6V4.32031H9.83984V6H8.16016Z" fill="#00DEEF"/>
</svg>
