<svg width="26" height="26" viewBox="0 0 26 26" fill="none" xmlns="http://www.w3.org/2000/svg">
<rect width="26" height="26" rx="3" fill="#FFF2EA"/>
<path d="M6.67188 18H19.3281V19.3438H6.67188V18ZM11.4531 14.1875L7.92188 13.2188L6.85938 12.9375L6.85938 9.5L7.82812 9.75L8.45312 11.3125L11.7656 12.1875V6.65625L13.0469 7L14.8906 13.0312L18.4219 13.9687C18.6927 14.0312 18.8906 14.1875 19.0156 14.4375C19.1615 14.6667 19.1927 14.9167 19.1094 15.1875C19.0469 15.4583 18.8906 15.6667 18.6406 15.8125C18.4115 15.9375 18.1615 15.9687 17.8906 15.9062L14.3594 14.9687L11.4531 14.1875Z" fill="#FF782D"/>
</svg>
