<svg width="60" height="34" viewBox="0 0 60 34" fill="none" xmlns="http://www.w3.org/2000/svg">
<path d="M13.6387 25.585C13.9142 25.7223 14.1897 25.8594 14.4653 25.9966C14.1209 25.8594 13.9142 25.7223 13.6387 25.585Z" fill="#30C2FF"/>
<path d="M29.8274 14.4042C27.8986 15.2959 25.9699 16.2561 24.041 17.1478C17.5659 13.9926 11.1595 10.9059 4.68421 7.88787C1.23994 6.31024 0.275542 3.77234 0 0.0683594C10.0573 4.86982 19.9768 9.67126 29.8274 14.4042Z" fill="#30C2FF"/>
<path d="M45.9473 25.9966C46.2228 25.8594 46.4983 25.7223 46.7738 25.585C46.4983 25.7223 46.2228 25.8594 45.9473 25.9966Z" fill="#30C2FF"/>
<path d="M7.85375 15.64C5.16721 14.3368 4.89167 11.7302 4.75391 8.78076C10.9536 11.7302 17.0844 14.6798 23.1463 17.5606C21.2175 18.4523 19.3576 19.4126 17.4977 20.3043C14.2601 18.7953 11.0914 17.2176 7.85375 15.64Z" fill="#007BFF"/>
<path d="M30.1724 14.8846C28.2436 15.8448 26.3147 16.8051 24.386 17.7653C24.0416 17.9025 23.7661 18.1084 23.4216 18.2455C21.4928 19.2059 19.6329 20.0976 17.7042 21.0578C17.3597 21.195 17.0153 21.4008 16.6708 21.538C15.0176 22.361 13.3643 23.1842 11.7111 24.0073C12.331 24.6246 12.8821 25.1048 13.571 25.5163C13.8465 25.6535 14.122 25.7906 14.3976 25.9278C16.2575 26.6824 18.3241 26.5452 20.8728 25.242C21.424 24.9676 21.975 24.6933 22.5261 24.4189C22.8706 24.2817 23.2149 24.0759 23.4905 23.9387C25.4193 22.9784 27.2792 22.0182 29.208 21.1265C29.4835 20.9893 29.828 20.8521 30.1035 20.6463C32.0323 19.6861 33.9611 18.7257 35.8899 17.7653C42.3652 14.5415 48.7715 11.3177 55.3156 8.16248C58.7599 6.51626 59.7243 3.90976 59.9998 0C50.0114 5.07583 40.023 10.0145 30.1724 14.8846Z" fill="#30C2FF"/>
<path d="M36.9219 18.2461C34.9931 19.2063 33.0642 20.1667 31.1355 21.1269C30.86 21.2641 30.5156 21.4014 30.24 21.6071C28.3112 22.5674 26.4513 23.5277 24.5225 24.4194C24.178 24.5565 23.8337 24.7624 23.5581 24.8995C21.6982 25.8599 19.7694 26.7516 17.9094 27.7118C17.7029 27.7805 17.5651 27.9176 17.3584 27.9862C19.0116 29.5639 20.9404 30.3869 23.007 30.2497C23.9025 30.1812 24.798 29.9754 25.7624 29.4952C26.9335 28.9465 28.1045 28.3292 29.2756 27.7805C29.6201 27.6433 29.9644 27.4375 30.24 27.3003C32.1688 26.3399 34.0287 25.4482 35.9575 24.488C36.233 24.3508 36.5775 24.2137 36.853 24.0765C38.7818 23.1161 40.7106 22.1559 42.6394 21.1956C45.8769 19.618 49.0457 17.9718 52.2145 16.3255C54.901 14.9536 55.1766 12.2786 55.3143 9.2605C49.1147 12.21 42.9838 15.228 36.9219 18.2461Z" fill="#007BFF"/>
<path d="M43.6042 21.6071C41.6753 22.5673 39.7465 23.5277 37.7488 24.4879C37.4733 24.6251 37.1289 24.7622 36.8534 24.8994C34.9245 25.8598 33.0646 26.82 31.1358 27.7117C30.7915 27.849 30.447 28.0547 30.1715 28.1919C28.3115 29.1522 26.3828 30.0439 24.5229 31.0041C23.9717 31.2786 23.4895 31.553 22.9385 31.7587C24.9361 33.6792 27.416 34.5709 30.1715 33.6107C30.5158 33.4736 30.8603 33.3364 31.2047 33.1992C32.7891 32.4447 34.3046 31.6902 35.82 30.9356C36.3712 30.6613 36.9222 30.3868 37.4733 30.1124C39.1955 29.2894 40.8487 28.3977 42.5708 27.5747C43.673 27.0258 44.8441 26.4085 45.9463 25.8598C46.2218 25.7226 46.4973 25.5854 46.7728 25.4483C47.0483 25.3111 47.3928 25.1052 47.6683 24.9681C50.4238 23.5962 50.6993 20.9211 50.9748 17.8345C48.4949 19.2063 46.0151 20.3724 43.6042 21.6071Z" fill="#30C2FF"/>
<path d="M11.5729 23.2527L11.3662 23.3891C11.3662 23.3208 11.504 23.3208 11.5729 23.2527Z" fill="#30C2FF"/>
<path d="M11.711 23.1149C11.6421 23.1834 11.5732 23.1834 11.4354 23.2519L11.091 23.3892C9.50661 21.9487 9.23107 19.8224 9.02441 17.353C11.5043 18.5191 13.9153 19.6851 16.3952 20.8513C14.8797 21.6058 13.2953 22.3604 11.711 23.1149Z" fill="#30C2FF"/>
</svg>
