<svg width="38" height="24" viewBox="0 0 38 24" fill="none" xmlns="http://www.w3.org/2000/svg">
<path fill-rule="evenodd" clip-rule="evenodd" d="M38 24V0L0 0.00465741V24H38Z" fill="#00336F"/>
<path fill-rule="evenodd" clip-rule="evenodd" d="M33.9102 18.6077C33.9102 18.44 34.0415 18.3049 34.2045 18.3049C34.3675 18.3049 34.4988 18.44 34.4988 18.6077C34.4988 18.7753 34.3675 18.9104 34.2045 18.9104C34.0415 18.9104 33.9102 18.7753 33.9102 18.6077ZM34.2045 18.8359C34.3267 18.8359 34.4264 18.7334 34.4264 18.603C34.4264 18.4726 34.3267 18.3701 34.2045 18.3701C34.0822 18.3701 33.9826 18.4726 33.9826 18.603C33.9781 18.7334 34.0777 18.8359 34.2045 18.8359ZM34.1637 18.7381H34.1049V18.4679H34.2135C34.2362 18.4679 34.2588 18.4679 34.2815 18.4819C34.3041 18.4959 34.3132 18.5238 34.3132 18.5471C34.3132 18.5797 34.295 18.603 34.2679 18.617L34.3177 18.7334H34.2498L34.209 18.6263H34.1637V18.7381V18.5844H34.1954C34.209 18.5844 34.2226 18.5844 34.2317 18.5797C34.2407 18.5751 34.2452 18.5611 34.2452 18.5471C34.2452 18.5378 34.2407 18.5238 34.2317 18.5192C34.2226 18.5145 34.2045 18.5145 34.1909 18.5145H34.1592V18.5844V18.7381H34.1637Z" fill="#F9B41D"/>
<path fill-rule="evenodd" clip-rule="evenodd" d="M33.9102 15.5371C33.9102 15.3694 34.0415 15.2344 34.2045 15.2344C34.3675 15.2344 34.4988 15.3694 34.4988 15.5371C34.4988 15.7048 34.3675 15.8398 34.2045 15.8398C34.0415 15.8398 33.9102 15.7048 33.9102 15.5371ZM34.2045 15.7653C34.3267 15.7653 34.4264 15.6629 34.4264 15.5325C34.4264 15.402 34.3267 15.2996 34.2045 15.2996C34.0822 15.2996 33.9826 15.402 33.9826 15.5325C33.9781 15.6629 34.0777 15.7653 34.2045 15.7653ZM34.1637 15.6675H34.1049V15.402H34.2135C34.2362 15.402 34.2588 15.402 34.2815 15.416C34.3041 15.43 34.3132 15.4579 34.3132 15.4812C34.3132 15.5138 34.295 15.5418 34.2679 15.5511L34.3177 15.6675H34.2498L34.209 15.5604H34.1637V15.6675V15.5138H34.1954C34.209 15.5138 34.2226 15.5138 34.2317 15.5092C34.2407 15.5045 34.2452 15.4905 34.2452 15.4766C34.2452 15.4672 34.2407 15.4533 34.2317 15.4486C34.2226 15.444 34.2045 15.444 34.1909 15.444H34.1592V15.5138V15.6675H34.1637Z" fill="white"/>
<path fill-rule="evenodd" clip-rule="evenodd" d="M18.9999 18.9891C20.6165 20.5075 22.7628 21.4297 25.1129 21.4297C30.1436 21.4297 34.2235 17.21 34.2235 12.0029C34.2235 6.79585 30.1436 2.57617 25.1129 2.57617C22.7583 2.57617 20.6165 3.49835 18.9999 5.01669C17.1615 6.73996 16.0068 9.23171 16.0068 12.0029C16.0068 14.7695 17.1615 17.2612 18.9999 18.9891Z" fill="#F9B41D"/>
<path fill-rule="evenodd" clip-rule="evenodd" d="M21.9442 11.001C21.9079 10.6611 21.8581 10.3304 21.7902 10.0043H16.2116C16.284 9.66435 16.3701 9.32901 16.4742 9.00765H21.5231C21.4144 8.66765 21.2831 8.33231 21.1382 8.01094H16.8636C17.0176 7.66629 17.1942 7.33561 17.3889 7.01424H20.6129C20.4001 6.66493 20.1691 6.33425 19.9201 6.01754H18.0817C18.3624 5.66357 18.6703 5.32824 19.0009 5.02084C17.3844 3.5025 15.238 2.58032 12.8879 2.58032C7.85718 2.58032 3.77734 6.8 3.77734 12.0071C3.77734 17.2141 7.85718 21.4338 12.8879 21.4338C15.2425 21.4338 17.3844 20.5116 19.0009 18.9933C19.3314 18.6859 19.6394 18.3506 19.9201 17.9966H18.0817C17.8326 17.6799 17.6017 17.3492 17.3889 16.9999H20.6129C20.8076 16.6785 20.9842 16.3478 21.1382 16.0032H16.8636C16.7187 15.6818 16.5874 15.3465 16.4742 15.0065H21.5231C21.6272 14.6805 21.7178 14.3498 21.7857 14.0098C21.8536 13.6838 21.9034 13.3484 21.9396 13.0131C21.9713 12.6824 21.9895 12.3517 21.9895 12.0164C21.9985 11.6624 21.9804 11.3317 21.9442 11.001Z" fill="#E20025"/>
<path fill-rule="evenodd" clip-rule="evenodd" d="M15.9038 14.7227C15.6004 14.8112 15.3876 14.8484 15.1612 14.8484C14.6993 14.8484 14.4141 14.5457 14.4141 13.9961C14.4141 13.889 14.4231 13.7726 14.4458 13.6468L14.5046 13.2649L14.5499 12.9575L14.9801 10.3027H15.931L15.8178 10.8803H16.411L16.2706 11.863H15.6729L15.4148 13.4512C15.4012 13.5211 15.3967 13.5769 15.3967 13.6142C15.3967 13.8145 15.5008 13.903 15.7318 13.903C15.845 13.903 15.931 13.889 16.0351 13.8657L15.9038 14.7227Z" fill="#00336F"/>
<path fill-rule="evenodd" clip-rule="evenodd" d="M18.9599 14.6852C18.6202 14.7923 18.2942 14.8436 17.9456 14.8436C16.886 14.8436 16.2656 14.2474 16.2656 13.1017C16.2656 11.765 16.9992 10.7822 17.9908 10.7822C18.8059 10.7822 19.3221 11.3318 19.3221 12.1981C19.3221 12.4822 19.2859 12.7617 19.1999 13.1575H17.2346C17.2256 13.2181 17.2256 13.246 17.2256 13.2786C17.2256 13.7304 17.5199 13.9586 18.095 13.9586C18.4482 13.9586 18.7651 13.8841 19.1229 13.7118L18.9599 14.6852ZM18.3712 12.3751C18.3757 12.2959 18.3803 12.226 18.3803 12.1748C18.3803 11.8581 18.2082 11.6718 17.9139 11.6718C17.6014 11.6718 17.375 11.9187 17.2845 12.3704L18.3712 12.3751Z" fill="#00336F"/>
<path fill-rule="evenodd" clip-rule="evenodd" d="M8.35833 14.7691H7.36667L7.93269 11.0943L6.66934 14.7691H5.99465L5.91314 11.1176L5.31543 14.7691H4.35547L5.12978 9.99048H6.55161L6.59236 12.948L7.55232 9.99048H9.11452L8.35833 14.7691Z" fill="#00336F"/>
<path fill-rule="evenodd" clip-rule="evenodd" d="M10.7315 13.0367C10.6273 13.0227 10.6092 13.0227 10.5367 13.0227C9.97525 13.0227 9.69451 13.2463 9.69451 13.6142C9.69451 13.8564 9.83488 14.0101 10.0477 14.0101C10.5277 14.0101 10.7133 13.6142 10.7315 13.0367ZM11.5148 14.7693H10.659L10.6771 14.3641C10.4598 14.6668 10.1654 14.8345 9.64018 14.8345C9.16019 14.8345 8.76172 14.4013 8.76172 13.7726C8.76172 13.5863 8.79341 13.4186 8.83417 13.2649C8.98812 12.6687 9.57225 12.2868 10.4733 12.2728C10.5865 12.2728 10.7631 12.2682 10.908 12.2868C10.9397 12.1611 10.9488 12.1052 10.9488 12.0353C10.9488 11.7792 10.745 11.6953 10.2832 11.6953C10.0024 11.6953 9.68546 11.7466 9.46358 11.8118L9.32773 11.8537L9.26887 11.8676L9.40471 10.992C9.86658 10.8477 10.1881 10.7871 10.5549 10.7871C11.4061 10.7871 11.8544 11.183 11.8544 11.9282C11.8544 12.1191 11.8725 12.2682 11.8091 12.6967L11.6008 14.0753L11.5646 14.3221L11.5375 14.5178L11.5193 14.6528L11.5148 14.7693Z" fill="#00336F"/>
<path fill-rule="evenodd" clip-rule="evenodd" d="M23.7123 10.9173C23.9885 10.9173 24.2421 10.9918 24.5953 11.1734L24.7583 10.1348C24.6723 10.0975 24.6451 10.0882 24.5183 10.0417L24.1108 9.93453C23.984 9.90193 23.8391 9.8833 23.667 9.8833C23.178 9.8833 22.8882 9.88796 22.5939 10.0789C22.4354 10.1814 22.2362 10.3258 22.0052 10.5912L21.8875 10.554L20.8823 11.2945L20.9321 10.88H19.8815L19.2793 14.769H20.2664L20.6287 12.6778C20.6287 12.6778 20.7691 12.3937 20.8324 12.3005C21.0136 12.049 21.1766 12.0444 21.3803 12.0537C21.403 12.0537 21.4392 12.0537 21.4528 12.0537C21.4211 12.2819 21.4075 12.5288 21.4075 12.7942C21.4075 14.0657 22.1048 14.8575 23.169 14.8575C23.4452 14.8575 23.6761 14.8202 24.0429 14.7178L24.215 13.6279C23.8889 13.7956 23.6172 13.8748 23.3727 13.8748C22.7976 13.8748 22.449 13.437 22.449 12.7104C22.458 11.6578 22.9742 10.9173 23.7123 10.9173Z" fill="#00336F"/>
<path fill-rule="evenodd" clip-rule="evenodd" d="M32.0677 9.99048L31.8504 11.3551C31.6104 10.9872 31.3296 10.8102 30.9448 10.8102C30.424 10.8102 29.9486 11.1176 29.6452 11.6905L29.6497 11.6858L29.0203 11.2992L29.0701 10.8847H28.0241L27.4219 14.7737H28.409L28.735 12.6825C28.735 12.6825 28.9886 12.3891 29.052 12.3006C29.1969 12.105 29.3599 12.0631 29.4912 12.0537C29.378 12.3844 29.3101 12.771 29.3101 13.2088C29.3101 14.1822 29.7991 14.8249 30.5191 14.8249C30.8814 14.8249 31.1621 14.6945 31.4338 14.3918L31.384 14.7737H32.3213L33.073 9.99048H32.0677ZM30.8632 13.8562C30.5282 13.8562 30.3561 13.6 30.3561 13.0877C30.3561 12.3239 30.6731 11.779 31.1213 11.779C31.461 11.779 31.6466 12.0491 31.6466 12.5428C31.6511 13.3159 31.3251 13.8562 30.8632 13.8562Z" fill="#00336F"/>
<path fill-rule="evenodd" clip-rule="evenodd" d="M26.3126 13.0367C26.2085 13.0227 26.1904 13.0227 26.1179 13.0227C25.5564 13.0227 25.2757 13.2463 25.2757 13.6142C25.2757 13.8564 25.4161 14.0101 25.6289 14.0101C26.1043 14.0101 26.2945 13.6142 26.3126 13.0367ZM27.0915 14.7693H26.2357L26.2538 14.3641C26.0364 14.6668 25.7421 14.8345 25.2168 14.8345C24.7369 14.8345 24.3021 14.4106 24.3067 13.7679C24.3112 12.8457 24.9814 12.2728 26.0455 12.2728C26.1587 12.2728 26.3353 12.2682 26.4802 12.2868C26.5119 12.1611 26.5209 12.1052 26.5209 12.0353C26.5209 11.7792 26.3172 11.6953 25.8553 11.6953C25.5746 11.6953 25.2576 11.7466 25.0357 11.8118L24.8999 11.8537L24.841 11.8676L24.9768 10.992C25.4387 10.8477 25.7602 10.7871 26.127 10.7871C26.9783 10.7871 27.4266 11.183 27.4266 11.9282C27.4266 12.1191 27.4447 12.2682 27.3813 12.6967L27.173 14.0753L27.1368 14.3221L27.1096 14.5178L27.0915 14.6528V14.7693Z" fill="#00336F"/>
<path fill-rule="evenodd" clip-rule="evenodd" d="M13.576 11.7137C13.7707 11.7137 14.0333 11.7323 14.3186 11.7742L14.459 10.8753C14.1692 10.8287 13.8024 10.7961 13.576 10.7961C12.4711 10.7961 12.1089 11.4063 12.1089 12.1235C12.1089 12.5846 12.3262 12.9339 12.847 13.1854C13.2454 13.381 13.3179 13.4136 13.3179 13.5906C13.3179 13.8328 13.1141 13.9725 12.7247 13.9725C12.4304 13.9725 12.1542 13.926 11.8417 13.8188L11.7285 14.7131L11.7512 14.7177L11.9323 14.755C11.9911 14.769 12.0772 14.7829 12.1904 14.7923C12.4258 14.8155 12.6251 14.8295 12.7519 14.8295C13.8477 14.8295 14.305 14.3917 14.305 13.5301C14.305 12.9945 14.0605 12.6824 13.5624 12.4495C13.1503 12.2539 13.1005 12.226 13.1005 12.0443C13.096 11.8674 13.2726 11.7137 13.576 11.7137Z" fill="#00336F"/>
<path fill-rule="evenodd" clip-rule="evenodd" d="M25.0269 9.83669L24.8638 10.8753C24.5106 10.689 24.2525 10.6191 23.9809 10.6191C23.2428 10.6191 22.7266 11.3597 22.7266 12.4123C22.7266 13.1388 23.0752 13.5766 23.6503 13.5766C23.8948 13.5766 24.162 13.4975 24.4925 13.3298L24.3205 14.4197C23.9582 14.5221 23.7228 14.5594 23.4465 14.5594C22.3824 14.5594 21.7168 13.7676 21.7168 12.4961C21.7168 10.7868 22.6315 9.58984 23.9446 9.58984C24.1122 9.58984 24.2616 9.60847 24.3884 9.64108L24.7959 9.7482C24.9137 9.79012 24.9408 9.79943 25.0269 9.83669Z" fill="white"/>
<path fill-rule="evenodd" clip-rule="evenodd" d="M21.8542 10.5494C21.8225 10.5447 21.7908 10.54 21.7546 10.54C21.4285 10.54 21.2474 10.7124 20.944 11.1735L21.0301 10.582H20.1335L19.5312 14.471H20.5184C20.8716 12.091 20.9667 11.6811 21.4421 11.6811C21.4738 11.6811 21.4738 11.6811 21.5146 11.6858C21.6006 11.2154 21.7229 10.8707 21.8904 10.5587L21.8542 10.5494Z" fill="white"/>
<path fill-rule="evenodd" clip-rule="evenodd" d="M16.1564 14.4243C15.8847 14.5128 15.6764 14.5501 15.4455 14.5501C14.9383 14.5501 14.6621 14.252 14.6621 13.6978C14.6621 13.5907 14.6712 13.4742 14.6938 13.3485L14.7527 12.9666L14.798 12.6592L15.2281 10.0044H16.2107L16.0975 10.5819H16.6001L16.4643 11.5274H15.9572L15.6945 13.1482C15.6809 13.2181 15.6764 13.2739 15.6764 13.3112C15.6764 13.5115 15.7806 13.6 16.0115 13.6C16.1247 13.6 16.2107 13.586 16.2787 13.5627L16.1564 14.4243Z" fill="white"/>
<path fill-rule="evenodd" clip-rule="evenodd" d="M12.3576 11.8122C12.3576 12.3059 12.5886 12.6412 13.1093 12.8974C13.5078 13.093 13.5712 13.1489 13.5712 13.3259C13.5712 13.5681 13.3946 13.6752 13.0052 13.6752C12.7108 13.6752 12.4346 13.6286 12.1222 13.5215L11.9863 14.4204L12.0316 14.4297L12.2127 14.467C12.2716 14.481 12.3576 14.4903 12.4708 14.4996C12.7063 14.5229 12.8874 14.5322 13.0142 14.5322C14.0557 14.5322 14.5357 14.1223 14.5357 13.2327C14.5357 12.6971 14.3364 12.3851 13.8383 12.1522C13.4263 11.9566 13.3765 11.91 13.3765 11.7284C13.3765 11.5188 13.5395 11.4117 13.861 11.4117C14.0557 11.4117 14.3183 11.435 14.5719 11.4722L14.7123 10.5733C14.4587 10.5314 14.0693 10.4988 13.8429 10.4988C12.738 10.4941 12.3531 11.095 12.3576 11.8122Z" fill="white"/>
<path fill-rule="evenodd" clip-rule="evenodd" d="M32.5738 14.4715H31.6365L31.6863 14.0896C31.4146 14.3876 31.1338 14.5227 30.7716 14.5227C30.0516 14.5227 29.5762 13.88 29.5762 12.9066C29.5762 11.6118 30.3143 10.5219 31.1837 10.5219C31.5685 10.5219 31.8583 10.6849 32.13 11.0529L32.3474 9.68823H33.3209L32.5738 14.4715ZM31.1157 13.5539C31.5776 13.5539 31.8991 13.0137 31.8991 12.2405C31.8991 11.7468 31.7134 11.4767 31.3738 11.4767C30.9256 11.4767 30.6041 12.017 30.6041 12.7855C30.6086 13.2978 30.7807 13.5539 31.1157 13.5539Z" fill="white"/>
<path fill-rule="evenodd" clip-rule="evenodd" d="M19.1767 14.3869C18.837 14.494 18.511 14.5452 18.1624 14.5452C17.0575 14.5452 16.4824 13.9491 16.4824 12.8033C16.4824 11.4666 17.216 10.4839 18.2076 10.4839C19.0227 10.4839 19.5389 11.0335 19.5389 11.8951C19.5389 12.1839 19.5027 12.4633 19.4166 12.8545H17.4514C17.4424 12.9151 17.4424 12.943 17.4424 12.9756C17.4424 13.4274 17.7367 13.6556 18.3118 13.6556C18.665 13.6556 18.9819 13.5811 19.3397 13.4088L19.1767 14.3869ZM18.6197 12.0721C18.6242 11.9929 18.6288 11.923 18.6288 11.8718C18.6288 11.5551 18.4567 11.3688 18.1624 11.3688C17.8499 11.3688 17.6235 11.6157 17.5329 12.0674L18.6197 12.0721Z" fill="white"/>
<path fill-rule="evenodd" clip-rule="evenodd" d="M8.60921 14.4715H7.62208L8.18809 10.7967L6.92475 14.4715H6.25006L6.16403 10.8153L5.57084 14.4715H4.64258L5.41689 9.68823H6.83872L6.87947 12.6504L7.83943 9.68823H9.37447L8.60921 14.4715Z" fill="white"/>
<path fill-rule="evenodd" clip-rule="evenodd" d="M11.0449 12.7376C10.9408 12.7236 10.8955 12.7236 10.8231 12.7236C10.2616 12.7236 9.98083 12.9239 9.98083 13.3151C9.98083 13.5573 10.1212 13.711 10.334 13.711C10.737 13.711 11.0268 13.3105 11.0449 12.7376ZM11.7649 14.4702H10.9453L10.9634 14.065C10.7144 14.3817 10.3793 14.5354 9.92649 14.5354C9.39217 14.5354 9.02539 14.1022 9.02539 13.4735C9.02539 12.528 9.66386 11.9738 10.7597 11.9738C10.8729 11.9738 11.0178 11.9831 11.1627 12.0064C11.1944 11.8759 11.2034 11.8247 11.2034 11.7549C11.2034 11.4987 11.0314 11.4009 10.5695 11.4009C10.2887 11.4009 9.96724 11.4428 9.74989 11.508L9.61405 11.5499L9.52348 11.5732L9.65933 10.6976C10.1529 10.5486 10.4789 10.4927 10.8412 10.4927C11.6925 10.4927 12.1407 10.8886 12.1407 11.6338C12.1407 11.8247 12.1272 11.9738 12.0592 12.4022L11.8509 13.7809L11.8147 14.0277L11.7875 14.2233L11.7694 14.3584L11.7649 14.4702Z" fill="white"/>
<path fill-rule="evenodd" clip-rule="evenodd" d="M26.6211 12.7376C26.517 12.7236 26.4717 12.7236 26.3992 12.7236C25.8377 12.7236 25.557 12.9239 25.557 13.3151C25.557 13.5573 25.6974 13.711 25.9102 13.711C26.3132 13.711 26.6075 13.3105 26.6211 12.7376ZM27.3411 14.4702H26.5215L26.5396 14.065C26.2906 14.3817 25.9555 14.5354 25.5027 14.5354C24.9683 14.5354 24.6016 14.1022 24.6016 13.4735C24.6016 12.528 25.24 11.9738 26.3358 11.9738C26.449 11.9738 26.5894 11.9831 26.7388 12.0064C26.7705 11.8759 26.7796 11.8247 26.7796 11.7549C26.7796 11.4987 26.6075 11.4009 26.1457 11.4009C25.8649 11.4009 25.5434 11.4428 25.3261 11.508L25.1902 11.5499L25.0997 11.5732L25.2355 10.6976C25.7291 10.5486 26.0551 10.4927 26.4173 10.4927C27.2686 10.4927 27.7169 10.8886 27.7169 11.6338C27.7169 11.8247 27.7033 11.9738 27.6354 12.4022L27.4271 13.7809L27.3909 14.0277L27.3637 14.2233L27.3456 14.3584L27.3411 14.4702Z" fill="white"/>
<path fill-rule="evenodd" clip-rule="evenodd" d="M29.9948 10.5494C29.9631 10.5447 29.9314 10.54 29.8952 10.54C29.5692 10.54 29.388 10.7124 29.0846 11.1735L29.1707 10.582H28.2741L27.6719 14.471H28.659C29.0122 12.091 29.1073 11.6811 29.5827 11.6811C29.6144 11.6811 29.6099 11.6811 29.6507 11.6858C29.7367 11.2154 29.859 10.8707 30.0265 10.5587L29.9948 10.5494Z" fill="white"/>
</svg>
