<svg width="28" height="28" viewBox="0 0 28 28" fill="none" xmlns="http://www.w3.org/2000/svg">
<path d="M3.49986 0H18.3687L26.2498 7.85052V26.25C26.2498 27.2169 25.4659 28 24.4998 28H3.49986C2.53383 28 1.74988 27.2169 1.74988 26.25V1.74998C1.74988 0.783142 2.53393 0 3.49986 0Z" fill="#E2574C"/>
<path d="M26.2247 7.87483H20.125C19.159 7.87483 18.3751 7.09087 18.3751 6.12485V0.017334L26.2247 7.87483Z" fill="#B53629"/>
<path d="M21.0004 13.088C21.3616 13.088 21.5383 12.773 21.5383 12.4677C21.5383 12.1515 21.354 11.8462 21.0004 11.8462H18.9438C18.5417 11.8462 18.3175 12.1795 18.3175 12.5475V17.6064C18.3175 18.0574 18.574 18.3077 18.9211 18.3077C19.2661 18.3077 19.5237 18.0574 19.5237 17.6064V16.2179H20.7677C21.1536 16.2179 21.3465 15.9018 21.3465 15.5879C21.3465 15.2804 21.1536 14.975 20.7677 14.975H19.5237V13.088H21.0004ZM14.0489 11.8462H12.5441C12.1356 11.8462 11.8456 12.1267 11.8456 12.5431V17.6108C11.8456 18.1276 12.2627 18.2894 12.5613 18.2894H14.1405C16.0095 18.2894 17.2438 17.0584 17.2438 15.1584C17.2428 13.1495 16.0808 11.8462 14.0489 11.8462ZM14.1212 17.0401H13.2038V13.0956H14.0306C15.2821 13.0956 15.8264 13.9361 15.8264 15.0959C15.8264 16.1813 15.2917 17.0401 14.1212 17.0401ZM8.60866 11.8462H7.11791C6.69643 11.8462 6.46143 12.1245 6.46143 12.5475V17.6064C6.46143 18.0574 6.73089 18.3077 7.09304 18.3077C7.45518 18.3077 7.72465 18.0574 7.72465 17.6064V16.1294H8.65918C9.81255 16.1294 10.7644 15.3116 10.7644 13.9964C10.7645 12.7094 9.84612 11.8462 8.60866 11.8462ZM8.5839 14.9427H7.72476V13.0341H8.5839C9.11424 13.0341 9.45163 13.4484 9.45163 13.9889C9.45051 14.5284 9.11424 14.9427 8.5839 14.9427Z" fill="white"/>
</svg>
