<svg width="12" height="19" viewBox="0 0 12 19" fill="none" xmlns="http://www.w3.org/2000/svg">
<path d="M9.33984 0.320312C9.91276 0.320312 10.3945 0.528646 10.7852 0.945312C11.2018 1.36198 11.4102 1.85677 11.4102 2.42969L11.4102 16.5703C11.4102 17.1432 11.2018 17.638 10.7852 18.0547C10.3945 18.4714 9.91276 18.6797 9.33984 18.6797H2.66016C2.08724 18.6797 1.59245 18.4714 1.17578 18.0547C0.785156 17.638 0.589844 17.1432 0.589844 16.5703L0.589844 2.42969C0.589844 1.85677 0.785156 1.36198 1.17578 0.945312C1.59245 0.528646 2.08724 0.320312 2.66016 0.320312L9.33984 0.320312ZM5.12109 17.4688C5.35547 17.7031 5.64193 17.8203 5.98047 17.8203C6.34505 17.8203 6.64453 17.7031 6.87891 17.4688C7.13932 17.2344 7.26953 16.9479 7.26953 16.6094C7.26953 16.2448 7.13932 15.9453 6.87891 15.7109C6.64453 15.4505 6.34505 15.3203 5.98047 15.3203C5.64193 15.3203 5.35547 15.4505 5.12109 15.7109C4.88672 15.9453 4.76953 16.2448 4.76953 16.6094C4.76953 16.9479 4.88672 17.2344 5.12109 17.4688ZM9.76953 14.5L9.76953 2.82031L2.26953 2.82031L2.26953 14.5L9.76953 14.5Z" fill="#00DEEF"/>
</svg>
