<svg width="26" height="26" viewBox="0 0 26 26" fill="none" xmlns="http://www.w3.org/2000/svg">
<rect opacity="0.1" width="26" height="26" rx="3" fill="#1B9CEC"/>
<path d="M6.67188 17.4688H19.3281V18.8125H6.67188V17.4688ZM19.2344 10.625C19.4844 10.7708 19.6406 10.9792 19.7031 11.25C19.7865 11.5 19.7552 11.75 19.6094 12C19.4844 12.2292 19.2865 12.3854 19.0156 12.4687L15.4531 13.4062L12.5781 14.1875L9.01562 15.125L7.95313 15.4375L7.45313 14.5312L6.23438 12.4375L7.20313 12.1562L8.51562 13.1875L11.8281 12.3125L9.07812 7.53125L10.3594 7.1875L14.9531 11.4688L18.4844 10.5312C18.7552 10.4479 19.0052 10.4792 19.2344 10.625Z" fill="#1B9CEC"/>
</svg>
