<svg width="26" height="26" viewBox="0 0 26 26" fill="none" xmlns="http://www.w3.org/2000/svg">
<rect width="26" height="26" rx="3" fill="#EDEEFF"/>
<path d="M9.54688 8.96875C9.19271 9.03125 8.85938 8.95833 8.54688 8.75C8.25521 8.54167 8.07812 8.26042 8.01562 7.90625C7.95312 7.53125 8.02604 7.19792 8.23438 6.90625C8.44271 6.59375 8.72396 6.40625 9.07812 6.34375C9.45312 6.28125 9.78646 6.36458 10.0781 6.59375C10.3906 6.80208 10.5781 7.08333 10.6406 7.4375C10.7031 7.79167 10.6302 8.125 10.4219 8.4375C10.2135 8.72917 9.92188 8.90625 9.54688 8.96875ZM15.6719 17.6562V19H10.9531C10.1406 19 9.42188 18.7396 8.79688 18.2188C8.17188 17.6771 7.78646 17 7.64063 16.1875L6.32813 9.65625H7.67188L8.98438 15.9688C9.04688 16.4688 9.26563 16.875 9.64063 17.1875C10.0156 17.5 10.4531 17.6562 10.9531 17.6562H15.6719ZM15.8281 15L19.6719 18L18.6719 19L16.1094 17H11.5469C11.0677 17 10.6406 16.8542 10.2656 16.5625C9.91146 16.25 9.68229 15.8542 9.57812 15.375L8.67188 11.4375C8.60938 11.0208 8.69271 10.6458 8.92188 10.3125C9.17188 9.95833 9.50521 9.75 9.92188 9.6875C10.1302 9.64583 10.349 9.65625 10.5781 9.71875C10.7865 9.78125 10.9531 9.86458 11.0781 9.96875L12.1719 10.8125C13.151 11.5833 14.1927 11.8646 15.2969 11.6562L15.2969 13.0937C14.2969 13.2604 13.151 12.9896 11.8594 12.2812L12.5469 15H15.8281Z" fill="#4F56FC"/>
</svg>
