<svg width="38" height="24" viewBox="0 0 38 24" fill="none" xmlns="http://www.w3.org/2000/svg">
<path d="M38 2.15991H0V21.3599H38V2.15991Z" fill="#F6F6F6"/>
<path fill-rule="evenodd" clip-rule="evenodd" d="M35.15 2.42752e-07C33.25 4.23947e-07 13.1339 -3.84764e-07 1.9 2.42752e-07C0.95 2.95818e-07 0 0.96 0 1.92V4.8H38C38 4.8 38 9.25726 38 2.88C38 0.96 37.05 2.42752e-07 35.15 2.42752e-07Z" fill="#265697"/>
<path fill-rule="evenodd" clip-rule="evenodd" d="M0 19.2C0 19.2 2.29514e-07 19.2 0 21.12C-1.09924e-07 23.04 0.95 24 2.85 24C13.448 24 33.25 24 35.15 24C37.05 24 38 23.04 38 21.12V19.2H0Z" fill="#D97B16"/>
<path fill-rule="evenodd" clip-rule="evenodd" d="M26.5085 7.14768C25.9759 6.94137 25.1414 6.71997 24.0992 6.71997C21.443 6.71997 19.572 8.1012 19.556 10.0807C19.5411 11.5439 20.8918 12.3602 21.9114 12.8473C22.9578 13.3464 23.3096 13.6648 23.3045 14.1105C23.2979 14.7931 22.4689 15.105 21.6963 15.105C20.6204 15.105 20.0488 14.9506 19.166 14.5704L18.8195 14.4086L18.4423 16.6882C19.0701 16.9725 20.2312 17.2188 21.4367 17.2315C24.2624 17.2315 26.0968 15.8662 26.1176 13.7524C26.1278 12.5939 25.4115 11.7123 23.8607 10.9855C22.9211 10.5144 22.3457 10.2001 22.3518 9.72307C22.3518 9.29978 22.8388 8.84716 23.8912 8.84716C24.7702 8.83306 25.407 9.031 25.9032 9.23731L26.144 9.35482L26.5085 7.14768Z" fill="#265697"/>
<path fill-rule="evenodd" clip-rule="evenodd" d="M33.4017 6.90674H31.3245C30.6811 6.90674 30.1995 7.08808 29.9169 7.75123L25.9246 17.0837H28.7474C28.7474 17.0837 29.2089 15.8289 29.3133 15.5534C29.6218 15.5534 32.364 15.5578 32.756 15.5578C32.8364 15.9143 33.083 17.0837 33.083 17.0837H35.5774L33.4017 6.90674ZM30.0869 13.4705C30.3092 12.8838 31.1579 10.6238 31.1579 10.6238C31.142 10.6509 31.3786 10.0342 31.5143 9.65182L31.696 10.5298C31.696 10.5298 32.2107 12.9606 32.3183 13.4704L30.0869 13.4705Z" fill="#265697"/>
<path fill-rule="evenodd" clip-rule="evenodd" d="M14.0718 17.0805L15.7525 6.89697H18.4406L16.7588 17.0805H14.0718Z" fill="#265697"/>
<path fill-rule="evenodd" clip-rule="evenodd" d="M11.8173 6.90454L9.18548 13.8489L8.90507 12.4377C8.41514 10.8109 6.88866 9.04827 5.18213 8.16586L7.58857 17.0718L10.4327 17.0685L14.6647 6.90454H11.8173Z" fill="#265697"/>
<path fill-rule="evenodd" clip-rule="evenodd" d="M6.74395 6.89819H2.40931L2.375 7.11007C5.74731 7.953 7.97873 9.99004 8.905 12.4376L7.96246 7.75792C7.79974 7.11309 7.32779 6.92067 6.74395 6.89819Z" fill="#D97B16"/>
</svg>
